<svg xmlns="http://www.w3.org/2000/svg" xmlns:xlink="http://www.w3.org/1999/xlink" width="24" height="24" version="1.1" viewBox="0 0 24 24"><title>Icon / ic_people</title><g id="Icon-/-ic_people" fill="none" fill-rule="evenodd" stroke="none" stroke-width="1"><path id="Shape" fill="#FFF" d="M6,2 C6,4.75 8.24,6.99 10.99,7 L10.99,7 L13.53,7 C14.83,7 15.5,7.72 15.89,8.11 L15.89,8.11 L20.36,12.59 L18.95,14 L15,10.05 L15,22 L13,22 L13,16 L11,16 L11,22 L9,22 L9,8.71 C6.11,7.84 4,5.16 4,2 L4,2 Z M12,2 C13.1045695,2 14,2.8954305 14,4 C14,5.1045695 13.1045695,6 12,6 C10.8954305,6 10,5.1045695 10,4 C10,2.8954305 10.8954305,2 12,2 Z"/><rect id="Path" width="24" height="24" x="0" y="0"/></g></svg>